<mxfile host="65bd71144e">
    <diagram id="1T6njB8qg0pEn6kVZKSy" name="Page-1">
        <mxGraphModel dx="1637" dy="575" grid="1" gridSize="10" guides="1" tooltips="1" connect="1" arrows="1" fold="1" page="1" pageScale="1" pageWidth="827" pageHeight="1169" math="0" shadow="0">
            <root>
                <mxCell id="0"/>
                <mxCell id="1" parent="0"/>
                <mxCell id="2" value="My website" style="shape=umlActor;verticalLabelPosition=bottom;verticalAlign=top;html=1;outlineConnect=0;" parent="1" vertex="1">
                    <mxGeometry x="310" y="790" width="170" height="270" as="geometry"/>
                </mxCell>
                <mxCell id="9" value="Sellers" style="ellipse;shape=cloud;whiteSpace=wrap;html=1;" parent="1" vertex="1">
                    <mxGeometry x="-90" y="650" width="270" height="150" as="geometry"/>
                </mxCell>
                <mxCell id="11" value="Interaction&amp;nbsp;" style="ellipse;shape=cloud;whiteSpace=wrap;html=1;" parent="1" vertex="1">
                    <mxGeometry x="90" y="380" width="230" height="190" as="geometry"/>
                </mxCell>
                <mxCell id="12" value="Products" style="ellipse;shape=cloud;whiteSpace=wrap;html=1;" parent="1" vertex="1">
                    <mxGeometry x="50" y="540" width="170" height="130" as="geometry"/>
                </mxCell>
                <mxCell id="20" value="Shipping" style="ellipse;shape=cloud;whiteSpace=wrap;html=1;" vertex="1" parent="1">
                    <mxGeometry x="310" y="430" width="260" height="150" as="geometry"/>
                </mxCell>
                <mxCell id="21" value="Customer" style="ellipse;shape=cloud;whiteSpace=wrap;html=1;" vertex="1" parent="1">
                    <mxGeometry x="430" y="600" width="260" height="150" as="geometry"/>
                </mxCell>
            </root>
        </mxGraphModel>
    </diagram>
</mxfile>